<?xml version="1.0" encoding="UTF-8" standalone="no"?>
<!-- Created with Inkscape (http://www.inkscape.org/) -->

<svg
   xmlns:dc="http://purl.org/dc/elements/1.1/"
   xmlns:cc="http://creativecommons.org/ns#"
   xmlns:rdf="http://www.w3.org/1999/02/22-rdf-syntax-ns#"
   xmlns:svg="http://www.w3.org/2000/svg"
   xmlns="http://www.w3.org/2000/svg"
   xmlns:sodipodi="http://sodipodi.sourceforge.net/DTD/sodipodi-0.dtd"
   xmlns:inkscape="http://www.inkscape.org/namespaces/inkscape"
   width="102.27792mm"
   height="141.74066mm"
   viewBox="0 0 362.40209 502.23069"
   id="svg2"
   version="1.1"
   inkscape:version="0.92.2 (5c3e80d, 2017-08-06)"
   inkscape:export-filename="C:\Users\Admin\Desktop\eigenes\flame.png"
   inkscape:export-xdpi="157.69647"
   inkscape:export-ydpi="157.69647"
   sodipodi:docname="flame.svg">
  <defs
     id="defs4">
    <inkscape:path-effect
       fuse_tolerance="0"
       vertical_pattern="false"
       prop_units="false"
       tang_offset="0"
       normal_offset="0"
       spacing="0"
       scale_y_rel="false"
       prop_scale="1"
       copytype="single_stretched"
       pattern="m 378.96301,261.44353 c 39.06302,0 82.86517,40.02186 82.86517,40.02186 0,0 -43.80215,40.02187 -82.86517,40.02187 -39.06302,0 -82.86517,-40.02187 -82.86517,-40.02187 0,0 43.80215,-40.02186 82.86517,-40.02186 z"
       is_visible="true"
       id="path-effect4336"
       effect="skeletal" />
    <inkscape:path-effect
       is_visible="true"
       id="path-effect4334"
       effect="spiro" />
    <inkscape:path-effect
       fuse_tolerance="0"
       vertical_pattern="false"
       prop_units="false"
       tang_offset="0"
       normal_offset="0"
       spacing="0"
       scale_y_rel="false"
       prop_scale="1"
       copytype="single_stretched"
       pattern="m 255.11302,240.38479 c 39.06302,0 82.86517,40.02186 82.86517,40.02186 0,0 -43.80215,40.02187 -82.86517,40.02187 -39.06302,0 -82.86517,-40.02187 -82.86517,-40.02187 0,0 43.80215,-40.02186 82.86517,-40.02186 z"
       is_visible="true"
       id="path-effect4330"
       effect="skeletal" />
    <inkscape:path-effect
       is_visible="true"
       id="path-effect4328"
       effect="spiro" />
    <inkscape:path-effect
       effect="skeletal"
       id="path-effect4319"
       is_visible="true"
       pattern="m 356.89126,149.07827 c 39.06302,0 82.86517,40.02186 82.86517,40.02186 0,0 -43.80215,40.02187 -82.86517,40.02187 -39.06302,0 -82.86517,-40.02187 -82.86517,-40.02187 0,0 43.80215,-40.02186 82.86517,-40.02186 z"
       copytype="single_stretched"
       prop_scale="1"
       scale_y_rel="false"
       spacing="0"
       normal_offset="0"
       tang_offset="0"
       prop_units="false"
       vertical_pattern="false"
       fuse_tolerance="0" />
    <inkscape:path-effect
       effect="spiro"
       id="path-effect4317"
       is_visible="true" />
  </defs>
  <sodipodi:namedview
     id="base"
     pagecolor="#ffffff"
     bordercolor="#666666"
     borderopacity="1.0"
     inkscape:pageopacity="0.0"
     inkscape:pageshadow="2"
     inkscape:zoom="0.49837466"
     inkscape:cx="324.78332"
     inkscape:cy="274.59315"
     inkscape:document-units="px"
     inkscape:current-layer="layer1"
     showgrid="false"
     inkscape:window-width="2560"
     inkscape:window-height="1377"
     inkscape:window-x="-8"
     inkscape:window-y="-8"
     inkscape:window-maximized="1"
     fit-margin-top="0"
     fit-margin-left="0"
     fit-margin-right="0"
     fit-margin-bottom="0" />
  <metadata
     id="metadata7">
    <rdf:RDF>
      <cc:Work
         rdf:about="">
        <dc:format>image/svg+xml</dc:format>
        <dc:type
           rdf:resource="http://purl.org/dc/dcmitype/StillImage" />
        <dc:title></dc:title>
      </cc:Work>
    </rdf:RDF>
  </metadata>
  <g
     inkscape:label="Ebene 1"
     inkscape:groupmode="layer"
     id="layer1"
     transform="translate(-337.88826,-402.28798)">
    <rect
       style="color:#000000;clip-rule:nonzero;display:inline;overflow:visible;visibility:visible;opacity:0.93000034;isolation:auto;mix-blend-mode:normal;color-interpolation:sRGB;color-interpolation-filters:linearRGB;solid-color:#000000;solid-opacity:1;fill:#27494e;fill-opacity:0;fill-rule:evenodd;stroke:none;stroke-width:3;stroke-linecap:round;stroke-linejoin:round;stroke-miterlimit:4;stroke-dasharray:none;stroke-dashoffset:0;stroke-opacity:1;color-rendering:auto;image-rendering:auto;shape-rendering:auto;text-rendering:auto;enable-background:accumulate"
       id="rect4136"
       width="174"
       height="174"
       x="272"
       y="429.36221" />
    <rect
       style="opacity:1;fill:#800000;fill-opacity:0;fill-rule:nonzero;stroke:none;stroke-width:3;stroke-linecap:round;stroke-linejoin:round;stroke-miterlimit:4;stroke-dasharray:none;stroke-dashoffset:0;stroke-opacity:1"
       id="rect4138"
       width="199"
       height="199"
       x="197"
       y="403.36221" />
    <rect
       style="opacity:1;fill:#004a00;fill-opacity:0;fill-rule:nonzero;stroke:none;stroke-width:3;stroke-linecap:round;stroke-linejoin:round;stroke-miterlimit:4;stroke-dasharray:none;stroke-dashoffset:0;stroke-opacity:1"
       id="rect4140"
       width="230"
       height="230"
       x="188"
       y="413.36221" />
    <rect
       style="opacity:1;fill:#ff2a2a;fill-opacity:0;fill-rule:nonzero;stroke:none;stroke-width:3;stroke-linecap:round;stroke-linejoin:round;stroke-miterlimit:4;stroke-dasharray:none;stroke-dashoffset:0;stroke-opacity:1"
       id="rect4150"
       width="68"
       height="65"
       x="395"
       y="560.36218" />
    <rect
       style="opacity:1;fill:#ff2a2a;fill-opacity:0;fill-rule:nonzero;stroke:none;stroke-width:3;stroke-linecap:round;stroke-linejoin:round;stroke-miterlimit:4;stroke-dasharray:none;stroke-dashoffset:0;stroke-opacity:1"
       id="rect4152"
       width="152"
       height="135"
       x="363"
       y="552.36218" />
    <path
       style="fill:#ff2a2a;fill-rule:evenodd;stroke:none;stroke-width:1px;stroke-linecap:butt;stroke-linejoin:miter;stroke-opacity:1"
       d="m 639.3524,614.01601 c 10.44878,10.31084 20.57851,22.1258 29.62195,35.60218 30.52024,46.25518 36.80635,99.67091 27.11239,144.22952 -9.11617,41.48088 -30.51892,70.39786 -47.41831,87.30491 -17.07533,17.08307 -29.66793,23.36609 -29.66793,23.36609 0,0 7.8983,-11.77206 15.60854,-32.57204 7.80749,-21.06234 14.25525,-50.08864 10.88378,-82.09832 -3.47678,-33.91997 -17.71513,-67.92087 -39.77518,-94.58667 -6.53179,-8.11122 -14.28865,-16.00871 -22.5958,-24.179 -2.93544,-2.88708 -5.94679,-5.81495 -9.04092,-8.82663 0,0 -10e-6,-10e-6 -10e-6,-10e-6 -11.90556,-11.44607 -25.27676,-23.81874 -38.40131,-37.66943 -13.76806,-14.38323 -26.61266,-30.3697 -37.2256,-48.18163 -11.44482,-18.98842 -18.85893,-39.70164 -21.52819,-60.39405 -3.23125,-26.78951 2.62516,-50.19412 11.03303,-67.50713 8.88671,-18.264 20.64048,-30.06716 28.73017,-36.75281 8.31014,-6.86785 13.6112,-9.46301 13.6112,-9.46301 0,0 -3.37876,4.90684 -7.51788,14.17087 -4.11826,9.21734 -8.74975,22.87157 -9.51658,39.15409 -0.73814,15.36554 2.04423,32.63945 9.88819,48.39173 5.89892,12.24385 14.94982,23.3686 26.03396,34.62016 10.62066,10.68654 22.92239,20.36699 36.59663,30.98777 13.36395,10.28792 27.90236,21.13347 42.35705,33.97402 0,0 10e-6,2e-5 10e-6,2e-5 3.78044,3.32305 7.52618,6.79338 11.21081,10.42937 z"
       id="path4315"
       inkscape:path-effect="#path-effect4317;#path-effect4319"
       inkscape:original-d="m 530.30021,402.28798 c -20.92462,31.28752 -25.01113,69.20773 -30.26034,107.71982 -14.09363,103.40066 103.12125,87.51435 137.30612,162.43213 39.12759,85.75003 -10.99468,155.07983 -18.3454,232.07868"
       inkscape:connector-curvature="0" />
    <path
       inkscape:connector-curvature="0"
       inkscape:original-d="M 384.30667,904.51861 C 368.45289,880.81323 365.35668,852.08255 361.37956,822.90339 350.70136,744.56065 439.5106,756.59712 465.41118,699.83476 495.05664,634.86523 457.08093,582.33668 451.51156,523.9976"
       inkscape:path-effect="#path-effect4328;#path-effect4330"
       id="path4326"
       d="m 417.51418,693.94841 c 6.03083,-5.92735 11.62777,-11.44353 16.26865,-16.93539 15.68702,-17.84573 27.4423,-41.22306 31.67048,-65.64954 4.09591,-23.14044 0.96605,-45.07468 -3.81936,-61.57185 -4.70357,-16.21503 -10.12242,-25.79405 -10.12242,-25.79405 0,0 10.10978,4.08966 24.1818,16.58811 13.90052,12.34612 31.93894,34.16256 40.35387,66.77843 8.94513,35.05429 5.13698,77.86809 -19.00767,115.29238 -7.15531,10.85975 -15.11956,20.28797 -23.2948,28.35859 -2.8829,2.84601 -5.80902,5.54022 -8.75689,8.0961 0,0 -1e-5,1e-5 -1e-5,1e-5 -11.25851,9.89518 -22.4194,17.93259 -32.57163,25.29306 -10.3624,7.59865 -19.59055,14.1539 -27.65167,21.39489 -8.3623,7.59075 -15.4022,14.85104 -20.2709,23.10737 -6.51237,10.59597 -9.64647,22.94404 -10.02691,34.34838 -0.41886,12.10401 2.25919,22.6587 4.88225,29.95654 2.62788,7.31124 4.9577,11.30717 4.9577,11.30717 0,0 -4.25047,-1.68327 -11.05102,-6.59931 -6.60656,-4.77581 -16.38276,-13.46012 -24.09585,-27.55525 -7.2937,-13.35859 -12.78955,-31.82382 -10.89431,-53.4638 1.63419,-16.70331 7.04701,-33.55523 15.76514,-48.88126 8.04325,-14.36008 17.83457,-27.23395 28.28063,-38.58875 9.91612,-10.92603 19.90323,-20.48498 28.6159,-28.98845 0,0 10e-6,-10e-6 10e-6,-10e-6 2.25414,-2.23723 4.46071,-4.40356 6.58701,-6.49337 z"
       style="fill:#ff2a2a;fill-rule:evenodd;stroke:none;stroke-width:1px;stroke-linecap:butt;stroke-linejoin:miter;stroke-opacity:1" />
    <path
       inkscape:connector-curvature="0"
       inkscape:original-d="m 532.63878,514.65324 c -13.31716,19.91247 -15.91795,44.04621 -19.25873,68.55665 -8.96968,65.80778 65.62995,55.69718 87.3864,103.37747 24.90216,54.57431 -6.9974,98.69821 -11.67566,147.70296"
       inkscape:path-effect="#path-effect4334;#path-effect4336"
       id="path4332"
       d="m 612.26513,639.03061 c 7.03787,6.94991 13.91894,15.18426 20.12968,24.73501 20.9547,33.00688 23.52453,70.51687 14.95338,100.8169 -8.06526,28.18557 -24.4185,46.44146 -36.81999,56.51034 -12.57007,10.20574 -21.43745,13.19751 -21.43745,13.19751 0,0 4.17954,-8.48151 7.37806,-22.40346 3.26536,-14.21286 4.75208,-32.60069 0.28548,-51.30375 -4.60597,-19.68414 -15.11531,-37.73381 -27.61619,-51.17406 -3.69184,-4.17848 -8.21453,-8.50956 -13.10353,-13.31182 -1.72763,-1.69698 -3.51945,-3.4704 -5.3595,-5.32622 0,0 -10e-6,-1e-5 -10e-6,-1e-5 -7.11508,-7.03092 -15.4101,-15.18344 -23.72085,-24.64589 -8.78443,-9.83986 -17.04806,-21.15669 -23.806,-33.79002 -7.35433,-13.49412 -11.76562,-28.41414 -12.88222,-43.12212 -1.22725,-19.06483 4.08891,-35.05744 10.82491,-46.43874 7.12671,-12.01197 15.91225,-19.13156 21.77758,-22.95426 6.04548,-3.9401 9.7703,-5.16678 9.7703,-5.16678 0,0 -1.80566,3.54027 -3.67698,9.87465 -1.87158,6.33522 -3.57949,15.34419 -2.56398,25.35554 0.94156,9.41986 4.24849,19.30969 10.0963,27.32333 4.35668,6.2627 10.38391,11.58769 17.38799,17.34823 6.79271,5.52471 14.45938,10.50197 23.17704,16.59616 8.54569,5.89604 18.01684,12.52871 27.67658,20.95049 0,0 10e-6,10e-6 10e-6,10e-6 2.5314,2.17214 5.04753,4.47811 7.52939,6.92896 z"
       style="fill:#ff2a2a;fill-rule:evenodd;stroke:none;stroke-width:1px;stroke-linecap:butt;stroke-linejoin:miter;stroke-opacity:1" />
  </g>
</svg>
